<?xml version="1.0" encoding="utf-8"?>
<!-- Generator: Adobe Illustrator 18.0.0, SVG Export Plug-In . SVG Version: 6.00 Build 0)  -->
<!DOCTYPE svg PUBLIC "-//W3C//DTD SVG 1.1//EN" "http://www.w3.org/Graphics/SVG/1.1/DTD/svg11.dtd">
<svg version="1.1" id="Layer_1" xmlns="http://www.w3.org/2000/svg" xmlns:xlink="http://www.w3.org/1999/xlink" x="0px" y="0px"
	 viewBox="0 0 841.9 595.3" enable-background="new 0 0 841.9 595.3" xml:space="preserve">
<g>
	
	<g>
		<path fill="#F8BE37" d="M766,473c0,0,24.1-16.1,29.5-44.9c5.4-28.8-3.4-49.6-10.7-51.6c-7.4-2-22.1,6-27.5,3.4
			c-5.4-2.7-8.9-14.3-27.7-14.3c-18.8,0-30.6,27.4-36.7,29.9c-6,2.5-27.8-7.9-29.7,0c-1.6,6.9,3.9,52.4,33.4,66.9
			c5.8,2.9,12.9,0.5,15.8-5.3c2.5-5,7.3-10.2,16.2-10.2C745.9,446.7,725.8,488.4,766,473z"/>
		<g>
			<path fill="#FFCE4B" d="M757.3,379.8c-5.4-2.7-8.9-14.3-27.7-14.3s-30.6,27.4-36.7,29.9c-1.3,0.5-3.2,0.5-5.6,0.2
				c2.5,0.4,11.9,2.7,22,13.6c11.7,12.7,17.8,24.6,34.8,19.9c25-6.9-1.6-39.2,17.2-48c0.7-0.3,1.3-0.7,1.9-1
				C760.8,380.4,758.7,380.5,757.3,379.8z"/>
			<path fill="#1B86C8" d="M686.7,395.5L686.7,395.5C686.7,395.5,686.8,395.5,686.7,395.5C686.7,395.5,686.7,395.5,686.7,395.5z"/>
		</g>
		<g>
			<circle fill="#E6E7E8" cx="736.4" cy="404.2" r="11.7"/>
			<circle fill="#414042" cx="736.4" cy="404.2" r="7.8"/>
		</g>
		<path fill="#F8B32B" d="M790.6,381.7c0.8,16.9,0.3,45.8-11.4,59.6c-17.1,20.1-27.9,30.3-33.2,17.9c-5.3-12.5-11.2-27.2-28.7-8.4
			c2.7-2.3,6.4-4,11.4-4c17.3,0-2.9,41.6,37.4,26.2c0,0,24.1-16.1,29.5-44.9C799.5,406.8,795.7,389.9,790.6,381.7z"/>
	</g>
	</g>
</svg>
