<?xml version="1.0" encoding="utf-8"?>
<!-- Generator: Adobe Illustrator 18.0.0, SVG Export Plug-In . SVG Version: 6.00 Build 0)  -->
<!DOCTYPE svg PUBLIC "-//W3C//DTD SVG 1.1//EN" "http://www.w3.org/Graphics/SVG/1.1/DTD/svg11.dtd">
<svg version="1.1" id="Layer_1" xmlns="http://www.w3.org/2000/svg" xmlns:xlink="http://www.w3.org/1999/xlink" x="0px" y="0px"
	 viewBox="0 0 841.9 595.3" enable-background="new 0 0 841.9 595.3" xml:space="preserve">
<g>

	<g>
		<path fill="#4EBA6E" d="M495,499.4c0,0-21.7-33-0.7-87.4c21-54.4,67.6-85.6,77.8-80.4s-4,38.1,14.7,56.7
			c18.7,18.6,13.7,14.9,0.8,48.1c-12.9,33.3-10.7,53.8-41.8,61.7S505.5,513,495,499.4z"/>
		<path fill="#75C485" d="M563.9,367.1c-17.1,20-61.9,34.3-52,72.6c9.9,38.3,38,49.2,48.4,18.7c10.3-30.5,24.4-64.8,33.2-63.4
			c-1.7-1.9-3.9-4.1-6.6-6.7c-12.8-12.7-10.2-32.1-10.6-44.8C575.7,348.5,573,356.4,563.9,367.1z"/>
		<g>
			<circle fill="#E6E7E8" cx="538.8" cy="431.9" r="11.7"/>
			<circle fill="#414042" cx="538.8" cy="431.9" r="7.8"/>
		</g>
	</g>

</g>
</svg>
