<?xml version="1.0" encoding="utf-8"?>
<!-- Generator: Adobe Illustrator 18.0.0, SVG Export Plug-In . SVG Version: 6.00 Build 0)  -->
<!DOCTYPE svg PUBLIC "-//W3C//DTD SVG 1.1//EN" "http://www.w3.org/Graphics/SVG/1.1/DTD/svg11.dtd">
<svg version="1.1" id="Layer_1" xmlns="http://www.w3.org/2000/svg" xmlns:xlink="http://www.w3.org/1999/xlink" x="0px" y="0px"
	 viewBox="0 0 841.9 595.3" enable-background="new 0 0 841.9 595.3" xml:space="preserve">
<g>
	


	
	
	<g>
		<path fill="#F15D4F" d="M390.1,155c0,0-23.5-12.2-34.9-34.3S325,81.9,302.9,86.6c-22.1,4.7-33.5,44.5-19.4,44.5
			c14.1,0,12.1,12.2,12.1,12.2s-28.1,24.5-23.8,47.1c4.3,22.7,32.4,42.9,58.9,34.9C357.2,217.5,427.6,178.3,390.1,155z"/>
		<path fill="#F47E69" d="M343.9,193.8c41.2-16.8-4.3-43.6-19.5-53.6c-15.2-10.1-36.8-8.6-36.8-8.6l0,0c9.6,2.1,8,11.8,8,11.8
			s-9.3,8.1-16.3,19.2h0C291.2,162.3,302.7,210.5,343.9,193.8z"/>
		<g>
			<circle fill="#E6E7E8" cx="336.1" cy="172.3" r="11.7"/>
			<circle fill="#414042" cx="336.1" cy="172.3" r="7.8"/>
		</g>
		<path fill="#DB5447" d="M390.1,155c0,0-11-5.7-21.5-16.4c0,0,9.2,14.2,16.6,21.9c7.4,7.7,12.4,17.5-24.4,41.9
			c-36.9,24.4-76.5,16.1-88-8.4c6.4,21.1,32.9,38.9,58,31.3C357.2,217.5,427.6,178.3,390.1,155z"/>
	</g>
	
</g>
</svg>
