<?xml version="1.0" encoding="utf-8"?>
<!-- Generator: Adobe Illustrator 18.0.0, SVG Export Plug-In . SVG Version: 6.00 Build 0)  -->
<!DOCTYPE svg PUBLIC "-//W3C//DTD SVG 1.1//EN" "http://www.w3.org/Graphics/SVG/1.1/DTD/svg11.dtd">
<svg version="1.1" id="Layer_1" xmlns="http://www.w3.org/2000/svg" xmlns:xlink="http://www.w3.org/1999/xlink" x="0px" y="0px"
	 viewBox="0 0 841.9 595.3" enable-background="new 0 0 841.9 595.3" xml:space="preserve">


<g>
	<g>
		<path fill="#D95D98" d="M193.8,128.9c0,0-6-3.4-9.4-12.7s-18.1-10.7-26.8-3.4c-8.7,7.4-49.6,8.7-66.4,16.1
			c-16.8,7.4-47.5,10.1-46.5,28.8s16.4,21.5,19,15.4c2.7-6,35,5.4,44,12.1c9,6.7,36.5,24.1,59.3,18.8s10.1-21.5,12.7-29.5
			C182.5,166.4,203.2,141.6,193.8,128.9z"/>
		<path fill="#F05D96" d="M151.8,135.1c-17.8-9.1-48.2-3.5-70.4-2.6c-16.7,5.2-37.4,9.8-36.6,25.3c0.9,18.8,16.4,21.5,19,15.4
			c0,0-5.8-9.1,11.5-16.6s22.7,14.6,50.2,21.3S178.9,148.9,151.8,135.1z"/>
		<g>
			<circle fill="#E6E7E8" cx="140.1" cy="156.5" r="11.7"/>
			<circle fill="#414042" cx="140.1" cy="156.5" r="7.8"/>
		</g>
		<path fill="#DB3D78" d="M179.8,181.2c-0.4-2.5-0.6-4.8,0-6.7c2.7-8,23.5-32.8,14.1-45.6c0,0-6-3.4-9.4-12.7
			c-2.1-5.8-8.5-8.5-15.2-8c18.9,3.4,8.1,27.7,3.1,36.5C159,168.2,179.8,181.2,179.8,181.2L179.8,181.2z"/>
	</g>	
</g>


</svg>
