<?xml version="1.0" encoding="utf-8"?>
<!-- Generator: Adobe Illustrator 18.0.0, SVG Export Plug-In . SVG Version: 6.00 Build 0)  -->
<!DOCTYPE svg PUBLIC "-//W3C//DTD SVG 1.1//EN" "http://www.w3.org/Graphics/SVG/1.1/DTD/svg11.dtd">
<svg version="1.1" id="Layer_1" xmlns="http://www.w3.org/2000/svg" xmlns:xlink="http://www.w3.org/1999/xlink" x="0px" y="0px"
	 viewBox="0 0 841.9 595.3" enable-background="new 0 0 841.9 595.3" xml:space="preserve">
<g>
	


	
	<g>
		<path fill="#42BFB9" d="M201.1,377.4c0,0-7.7-22.1-28.6-24.5c-20.9-2.4-57.1,9.7-82.9,3.8c-25.9-5.9-41.2,9-37,61.2
			s5.8,73.4,37.7,78.9S175,480.3,193,453.4S205.6,386,201.1,377.4z"/>
		<path fill="#5EC5BE" d="M111.9,449.4c44.6,3.5,47.1-43.9,52-62c2.3-8.6-2.6-22.3-8.4-34.2c-20.4,2-46.2,8-66,3.5
			c-1.8-0.4-3.6-0.7-5.3-0.9c2.8,7.1,4.2,17.1,1.7,30.9C79.1,423.5,67.3,446,111.9,449.4z"/>
		<g>
			<circle fill="#E6E7E8" cx="109.7" cy="413.8" r="11.7"/>
			<circle fill="#414042" cx="109.7" cy="413.8" r="7.8"/>
		</g>
		<path fill="#02ABA0" d="M52.5,418c4.1,52.1,5.8,73.4,37.7,78.9c21.8,3.8,53.4-5.4,76.9-20.1c0,0-62.3,15.2-86.5-2.7
			c-20.8-15.3-26.5-82.9-16.3-113.4C54.6,368.7,50,386.6,52.5,418z"/>
	</g>
	
</g>
</svg>
